ffmpeg version 4.4.2-0ubuntu0.22.04.1 Copyright (c) 2000-2021 the FFmpeg developers
  built with gcc 11 (Ubuntu 11.2.0-19ubuntu1)
  configuration: --prefix=/usr --extra-version=0ubuntu0.22.04.1 --toolchain=hardened --libdir=/usr/lib/x86_64-linux-gnu --incdir=/usr/include/x86_64-linux-gnu --arch=amd64 --enable-gpl --disable-stripping --enable-gnutls --enable-ladspa --enable-libaom --enable-libass --enable-libbluray --enable-libbs2b --enable-libcaca --enable-libcdio --enable-libcodec2 --enable-libdav1d --enable-libflite --enable-libfontconfig --enable-libfreetype --enable-libfribidi --enable-libgme --enable-libgsm --enable-libjack --enable-libmp3lame --enable-libmysofa --enable-libopenjpeg --enable-libopenmpt --enable-libopus --enable-libpulse --enable-librabbitmq --enable-librubberband --enable-libshine --enable-libsnappy --enable-libsoxr --enable-libspeex --enable-libsrt --enable-libssh --enable-libtheora --enable-libtwolame --enable-libvidstab --enable-libvorbis --enable-libvpx --enable-libwebp --enable-libx265 --enable-libxml2 --enable-libxvid --enable-libzimg --enable-libzmq --enable-libzvbi --enable-lv2 --enable-omx --enable-openal --enable-opencl --enable-opengl --enable-sdl2 --enable-pocketsphinx --enable-librsvg --enable-libmfx --enable-libdc1394 --enable-libdrm --enable-libiec61883 --enable-chromaprint --enable-frei0r --enable-libx264 --enable-shared
  libavutil      56. 70.100 / 56. 70.100
  libavcodec     58.134.100 / 58.134.100
  libavformat    58. 76.100 / 58. 76.100
  libavdevice    58. 13.100 / 58. 13.100
  libavfilter     7.110.100 /  7.110.100
  libswscale      5.  9.100 /  5.  9.100
  libswresample   3.  9.100 /  3.  9.100
  libpostproc    55.  9.100 / 55.  9.100
Input #0, flv, from '/storage/32426326/20250711/32426326-20250711-185333-241.flv':
  Metadata:
    encoder         : obs-output module (libobs versi,BILIAVC.2.1.0.live
    fps             : 60
    level           : 
    displayWidth    : 1920
    displayHeight   : 1080
    profile         : 
    cdn_ip          : 192.168.252.3
    Rawdata         : 
    Title           : 技术主播没有GG
    Artist          : 蓝音BuBuLine (32426326)
    Comment         : mikufans直播间 32426326 的直播录像
                    : 主播名: 蓝音BuBuLine
                    : 直播标题: 技术主播没有GG
                    : 直播分区: 单机游戏·主机游戏
                    : 录制时间: 2025-07-11T18:53:33.3142926+00:00
                    : 直播服务器:
                    : d1--ov-gotcha07b.bilivideo.com [156.59.188.243]
                    : 
                    : 使用 mikufans录播姬 录制 https://rec.danmuji.org
                    : 录播姬版本: 2.17.3
    RecordedBy      : BililiveRecorder mikufans录播姬
    RecordedFrom    : d1--ov-gotcha07b.bilivideo.com
    StreamServers   : d1--ov-gotcha07b.bilivideo.com [156.59.188.243]
    RecorderVersion : 2.17.3+Branch.tags-v2.17.3.Sha.96407e2eba9a597dd9997c6fb731725f4294a371
    StartTime       : Fri, 11 Jul 2025 18:53:33 +0000
    RoomId          : 32426326
    ShortId         : 0
    Name            : 蓝音BuBuLine
    StreamTitle     : 技术主播没有GG
    AreaNameParent  : 单机游戏
    AreaNameChild   : 主机游戏
  Duration: 03:24:18.09, start: 0.000000, bitrate: 6916 kb/s
  Stream #0:0: Video: h264 (High), yuv420p(tv, bt709, progressive), 1920x1080, 60 fps, 60 tbr, 1k tbn, 120 tbc
  Stream #0:1: Audio: aac (LC), 48000 Hz, stereo, fltp, 191 kb/s
Stream mapping:
  Stream #0:0 -> #0:0 (h264 (native) -> png (native))
Press [q] to stop, [?] for help
Output #0, image2, to '/storage/32426326/20250711/32426326-20250711-185333-241.all.thumb.png':
  Metadata:
    AreaNameChild   : 主机游戏
    fps             : 60
    level           : 
    displayWidth    : 1920
    displayHeight   : 1080
    profile         : 
    cdn_ip          : 192.168.252.3
    Rawdata         : 
    Title           : 技术主播没有GG
    Artist          : 蓝音BuBuLine (32426326)
    Comment         : mikufans直播间 32426326 的直播录像
                    : 主播名: 蓝音BuBuLine
                    : 直播标题: 技术主播没有GG
                    : 直播分区: 单机游戏·主机游戏
                    : 录制时间: 2025-07-11T18:53:33.3142926+00:00
                    : 直播服务器:
                    : d1--ov-gotcha07b.bilivideo.com [156.59.188.243]
                    : 
                    : 使用 mikufans录播姬 录制 https://rec.danmuji.org
                    : 录播姬版本: 2.17.3
    RecordedBy      : BililiveRecorder mikufans录播姬
    RecordedFrom    : d1--ov-gotcha07b.bilivideo.com
    StreamServers   : d1--ov-gotcha07b.bilivideo.com [156.59.188.243]
    RecorderVersion : 2.17.3+Branch.tags-v2.17.3.Sha.96407e2eba9a597dd9997c6fb731725f4294a371
    StartTime       : Fri, 11 Jul 2025 18:53:33 +0000
    RoomId          : 32426326
    ShortId         : 0
    Name            : 蓝音BuBuLine
    StreamTitle     : 技术主播没有GG
    AreaNameParent  : 单机游戏
    encoder         : Lavf58.76.100
  Stream #0:0: Video: png, rgb24(pc, gbr/bt709/bt709, progressive), 1920x1080, q=2-31, 200 kb/s, 60 fps, 60 tbn
    Metadata:
      encoder         : Lavc58.134.100 png
frame=    1 fps=0.0 q=0.0 size=N/A time=00:00:00.00 bitrate=N/A speed=   0x    frame=    1 fps=0.0 q=-0.0 Lsize=N/A time=00:00:00.01 bitrate=N/A speed=0.0708x    
video:2199kB audio:0kB subtitle:0kB other streams:0kB global headers:0kB muxing overhead: unknown
ffmpeg version 4.4.2-0ubuntu0.22.04.1 Copyright (c) 2000-2021 the FFmpeg developers
  built with gcc 11 (Ubuntu 11.2.0-19ubuntu1)
  configuration: --prefix=/usr --extra-version=0ubuntu0.22.04.1 --toolchain=hardened --libdir=/usr/lib/x86_64-linux-gnu --incdir=/usr/include/x86_64-linux-gnu --arch=amd64 --enable-gpl --disable-stripping --enable-gnutls --enable-ladspa --enable-libaom --enable-libass --enable-libbluray --enable-libbs2b --enable-libcaca --enable-libcdio --enable-libcodec2 --enable-libdav1d --enable-libflite --enable-libfontconfig --enable-libfreetype --enable-libfribidi --enable-libgme --enable-libgsm --enable-libjack --enable-libmp3lame --enable-libmysofa --enable-libopenjpeg --enable-libopenmpt --enable-libopus --enable-libpulse --enable-librabbitmq --enable-librubberband --enable-libshine --enable-libsnappy --enable-libsoxr --enable-libspeex --enable-libsrt --enable-libssh --enable-libtheora --enable-libtwolame --enable-libvidstab --enable-libvorbis --enable-libvpx --enable-libwebp --enable-libx265 --enable-libxml2 --enable-libxvid --enable-libzimg --enable-libzmq --enable-libzvbi --enable-lv2 --enable-omx --enable-openal --enable-opencl --enable-opengl --enable-sdl2 --enable-pocketsphinx --enable-librsvg --enable-libmfx --enable-libdc1394 --enable-libdrm --enable-libiec61883 --enable-chromaprint --enable-frei0r --enable-libx264 --enable-shared
  libavutil      56. 70.100 / 56. 70.100
  libavcodec     58.134.100 / 58.134.100
  libavformat    58. 76.100 / 58. 76.100
  libavdevice    58. 13.100 / 58. 13.100
  libavfilter     7.110.100 /  7.110.100
  libswscale      5.  9.100 /  5.  9.100
  libswresample   3.  9.100 /  3.  9.100
  libpostproc    55.  9.100 / 55.  9.100
[flv @ 0x55d4c4966fc0] Auto-inserting h264_mp4toannexb bitstream filter
Input #0, concat, from '/storage/32426326/20250711/32426326-20250711-185333-241.all.concat.txt':
  Duration: N/A, start: 0.000000, bitrate: 191 kb/s
  Stream #0:0: Video: h264 (High), yuv420p(tv, bt709, progressive), 1920x1080, 60 fps, 60 tbr, 1k tbn, 120 tbc
  Stream #0:1: Audio: aac (LC), 48000 Hz, stereo, fltp, 191 kb/s
Output #0, flv, to '/storage/32426326/20250711/32426326-20250711-185333-241.all.flv':
  Metadata:
    encoder         : Lavf58.76.100
  Stream #0:0: Video: h264 (High) ([7][0][0][0] / 0x0007), yuv420p(tv, bt709, progressive), 1920x1080, q=2-31, 60 fps, 60 tbr, 1k tbn, 1k tbc
  Stream #0:1: Audio: aac (LC) ([10][0][0][0] / 0x000A), 48000 Hz, stereo, fltp, 191 kb/s
Stream mapping:
  Stream #0:0 -> #0:0 (copy)
  Stream #0:1 -> #0:1 (copy)
Press [q] to stop, [?] for help
frame=    1 fps=0.0 q=-1.0 size=       0kB time=00:00:00.00 bitrate=1098.7kbits/s speed=N/A    frame= 6578 fps=0.0 q=-1.0 size=   33024kB time=00:01:49.60 bitrate=2468.3kbits/s speed= 219x    frame=12069 fps=12069 q=-1.0 size=   65024kB time=00:03:21.13 bitrate=2648.4kbits/s speed= 201x    frame=17765 fps=11837 q=-1.0 size=   97536kB time=00:04:56.05 bitrate=2698.9kbits/s speed= 197x    frame=26960 fps=13474 q=-1.0 size=  130048kB time=00:07:29.30 bitrate=2371.1kbits/s speed= 225x    frame=33208 fps=13278 q=-1.0 size=  163584kB time=00:09:13.45 bitrate=2421.3kbits/s speed= 221x    frame=40543 fps=13510 q=-1.0 size=  197888kB time=00:11:15.68 bitrate=2399.2kbits/s speed= 225x    frame=44751 fps=12779 q=-1.0 size=  231168kB time=00:12:25.83 bitrate=2539.1kbits/s speed= 213x    frame=54438 fps=13602 q=-1.0 size=  262912kB time=00:15:07.27 bitrate=2373.9kbits/s speed= 227x    frame=64343 fps=14290 q=-1.0 size=  291840kB time=00:17:52.36 bitrate=2229.4kbits/s speed= 238x    frame=69839 fps=13960 q=-1.0 size=  323840kB time=00:19:23.96 bitrate=2279.2kbits/s speed= 233x    frame=75501 fps=13719 q=-1.0 size=  355328kB time=00:20:58.32 bitrate=2313.3kbits/s speed= 229x    frame=81311 fps=13543 q=-1.0 size=  387328kB time=00:22:35.15 bitrate=2341.4kbits/s speed= 226x    frame=85695 fps=13176 q=-1.0 size=  419584kB time=00:23:48.22 bitrate=2406.7kbits/s speed= 220x    frame=95640 fps=13653 q=-1.0 size=  448256kB time=00:26:33.97 bitrate=2303.8kbits/s speed= 228x    frame=100341 fps=13369 q=-1.0 size=  480512kB time=00:27:52.32 bitrate=2353.8kbits/s speed= 223x    frame=105862 fps=13223 q=-1.0 size=  511488kB time=00:29:24.33 bitrate=2374.9kbits/s speed= 220x    frame=113992 fps=13401 q=-1.0 size=  542208kB time=00:31:39.83 bitrate=2338.0kbits/s speed= 223x    frame=120570 fps=13387 q=-1.0 size=  572672kB time=00:33:29.47 bitrate=2334.6kbits/s speed= 223x    frame=125051 fps=13154 q=-1.0 size=  604928kB time=00:34:44.16 bitrate=2377.7kbits/s speed= 219x    frame=129282 fps=12919 q=-1.0 size=  636928kB time=00:35:54.67 bitrate=2421.6kbits/s speed= 215x    frame=133171 fps=12673 q=-1.0 size=  671232kB time=00:36:59.48 bitrate=2477.5kbits/s speed= 211x    frame=136817 fps=12429 q=-1.0 size=  707072kB time=00:38:00.25 bitrate=2540.2kbits/s speed= 207x    frame=146111 fps=12696 q=-1.0 size=  737536kB time=00:40:35.15 bitrate=2481.1kbits/s speed= 212x    frame=153700 fps=12799 q=-1.0 size=  773376kB time=00:42:41.63 bitrate=2473.2kbits/s speed= 213x    frame=158501 fps=12670 q=-1.0 size=  809728kB time=00:44:01.65 bitrate=2511.0kbits/s speed= 211x    frame=162687 fps=12504 q=-1.0 size=  842240kB time=00:45:11.42 bitrate=2544.7kbits/s speed= 208x    frame=168337 fps=12459 q=-1.0 size=  875520kB time=00:46:45.59 bitrate=2556.4kbits/s speed= 208x    frame=173123 fps=12356 q=-1.0 size=  911616kB time=00:48:05.35 bitrate=2588.2kbits/s speed= 206x    frame=177239 fps=12214 q=-1.0 size=  943872kB time=00:49:13.96 bitrate=2617.6kbits/s speed= 204x    frame=181851 fps=12114 q=-1.0 size=  982528kB time=00:50:30.82 bitrate=2655.7kbits/s speed= 202x    frame=187983 fps=12119 q=-1.0 size= 1017856kB time=00:52:13.03 bitrate=2661.4kbits/s speed= 202x    frame=198413 fps=12391 q=-1.0 size= 1047296kB time=00:55:06.85 bitrate=2594.4kbits/s speed= 207x    frame=203747 fps=12339 q=-1.0 size= 1080320kB time=00:56:35.75 bitrate=2606.2kbits/s speed= 206x    frame=207561 fps=12200 q=-1.0 size= 1117440kB time=00:57:39.32 bitrate=2646.2kbits/s speed= 203x    frame=209910 fps=11985 q=-1.0 size= 1152000kB time=00:58:18.47 bitrate=2697.5kbits/s speed= 200x    frame=215657 fps=11971 q=-1.0 size= 1186304kB time=00:59:54.25 bitrate=2703.8kbits/s speed= 200x    frame=221820 fps=11981 q=-1.0 size= 1223168kB time=01:01:36.97 bitrate=2710.4kbits/s speed= 200x    frame=227525 fps=11966 q=-1.0 size= 1255680kB time=01:03:12.06 bitrate=2712.6kbits/s speed= 199x    frame=229551 fps=11763 q=-1.0 size= 1293056kB time=01:03:45.83 bitrate=2768.7kbits/s speed= 196x    frame=232598 fps=11621 q=-1.0 size= 1331200kB time=01:04:36.60 bitrate=2813.1kbits/s speed= 194x    frame=234642 fps=11437 q=-1.0 size= 1368832kB time=01:05:10.67 bitrate=2867.4kbits/s speed= 191x    frame=236758 fps=11266 q=-1.0 size= 1408768kB time=01:05:45.94 bitrate=2924.7kbits/s speed= 188x    frame=238823 fps=11099 q=-1.0 size= 1448192kB time=01:06:20.35 bitrate=2980.5kbits/s speed= 185x    frame=240690 fps=10932 q=-1.0 size= 1485056kB time=01:06:51.47 bitrate=3032.7kbits/s speed= 182x    frame=242591 fps=10774 q=-1.0 size= 1523456kB time=01:07:23.15 bitrate=3086.7kbits/s speed= 180x    frame=244643 fps=10628 q=-1.0 size= 1563392kB time=01:07:57.35 bitrate=3141.1kbits/s speed= 177x    frame=246723 fps=10491 q=-1.0 size= 1597696kB time=01:08:32.02 bitrate=3182.9kbits/s speed= 175x    frame=249782 fps=10400 q=-1.0 size= 1636352kB time=01:09:23.00 bitrate=3220.0kbits/s speed= 173x    frame=252291 fps=10290 q=-1.0 size= 1675264kB time=01:10:04.82 bitrate=3263.8kbits/s speed= 171x    frame=254463 fps=10171 q=-1.0 size= 1711616kB time=01:10:41.02 bitrate=3306.2kbits/s speed= 170x    frame=256332 fps=10045 q=-1.0 size= 1749248kB time=01:11:12.17 bitrate=3354.2kbits/s speed= 167x    frame=258163 fps=9922 q=-1.0 size= 1786368kB time=01:11:42.69 bitrate=3401.1kbits/s speed= 165x    frame=260129 fps=9809 q=-1.0 size= 1825536kB time=01:12:15.45 bitrate=3449.4kbits/s speed= 163x    frame=261956 fps=9694 q=-1.0 size= 1861888kB time=01:12:45.90 bitrate=3493.6kbits/s speed= 162x    frame=263857 fps=9587 q=-1.0 size= 1899264kB time=01:13:17.59 bitrate=3538.0kbits/s speed= 160x    frame=265702 fps=9482 q=-1.0 size= 1935616kB time=01:13:48.35 bitrate=3580.7kbits/s speed= 158x    frame=267620 fps=9383 q=-1.0 size= 1974784kB time=01:14:20.30 bitrate=3627.0kbits/s speed= 156x    frame=269495 fps=9286 q=-1.0 size= 2010368kB time=01:14:51.56 bitrate=3666.6kbits/s speed= 155x    frame=271148 fps=9184 q=-1.0 size= 2043904kB time=01:15:19.10 bitrate=3705.1kbits/s speed= 153x    frame=273055 fps=9095 q=-1.0 size= 2082304kB time=01:15:50.88 bitrate=3748.3kbits/s speed= 152x    frame=274804 fps=9003 q=-1.0 size= 2117632kB time=01:16:20.03 bitrate=3787.7kbits/s speed= 150x    frame=276537 fps=8914 q=-1.0 size= 2151936kB time=01:16:48.92 bitrate=3824.9kbits/s speed= 149x    frame=278524 fps=8835 q=-1.0 size= 2190336kB time=01:17:22.04 bitrate=3865.4kbits/s speed= 147x    frame=280816 fps=8769 q=-1.0 size= 2223872kB time=01:18:00.23 bitrate=3892.5kbits/s speed= 146x    frame=283525 fps=8717 q=-1.0 size= 2257664kB time=01:18:45.39 bitrate=3913.9kbits/s speed= 145x    frame=286243 fps=8667 q=-1.0 size= 2295040kB time=01:19:30.68 bitrate=3940.9kbits/s speed= 144x    frame=288351 fps=8601 q=-1.0 size= 2330880kB time=01:20:05.82 bitrate=3973.2kbits/s speed= 143x    frame=290184 fps=8528 q=-1.0 size= 2365952kB time=01:20:36.37 bitrate=4007.5kbits/s speed= 142x    frame=292008 fps=8458 q=-1.0 size= 2402304kB time=01:21:06.77 bitrate=4043.7kbits/s speed= 141x    frame=293880 fps=8390 q=-1.0 size= 2438912kB time=01:21:37.97 bitrate=4079.2kbits/s speed= 140x    frame=295635 fps=8321 q=-1.0 size= 2474496kB time=01:22:07.22 bitrate=4114.1kbits/s speed= 139x    frame=297567 fps=8259 q=-1.0 size= 2513408kB time=01:22:39.42 bitrate=4151.7kbits/s speed= 138x    frame=299320 fps=8194 q=-1.0 size= 2547456kB time=01:23:08.65 bitrate=4183.2kbits/s speed= 137x    frame=301691 fps=8147 q=-1.0 size= 2591232kB time=01:23:48.15 bitrate=4221.7kbits/s speed= 136x    frame=304924 fps=8125 q=-1.0 size= 2632448kB time=01:24:42.04 bitrate=4243.4kbits/s speed= 135x    frame=307029 fps=8074 q=-1.0 size= 2666240kB time=01:25:17.12 bitrate=4268.4kbits/s speed= 135x    frame=309734 fps=8039 q=-1.0 size= 2703360kB time=01:26:02.21 bitrate=4290.0kbits/s speed= 134x    frame=311643 fps=7985 q=-1.0 size= 2741504kB time=01:26:34.02 bitrate=4323.9kbits/s speed= 133x    frame=313594 fps=7933 q=-1.0 size= 2775808kB time=01:27:06.53 bitrate=4350.8kbits/s speed= 132x    frame=315644 fps=7885 q=-1.0 size= 2813184kB time=01:27:40.71 bitrate=4380.7kbits/s speed= 131x    frame=317697 fps=7838 q=-1.0 size= 2851328kB time=01:28:14.93 bitrate=4411.4kbits/s speed= 131x    frame=319450 fps=7786 q=-1.0 size= 2886144kB time=01:28:44.13 bitrate=4440.8kbits/s speed= 130x    frame=321335 fps=7737 q=-1.0 size= 2924288kB time=01:29:15.55 bitrate=4473.1kbits/s speed= 129x    frame=323409 fps=7694 q=-1.0 size= 2966016kB time=01:29:50.12 bitrate=4507.8kbits/s speed= 128x    frame=325300 fps=7648 q=-1.0 size= 3003904kB time=01:30:21.63 bitrate=4538.8kbits/s speed= 127x    frame=327222 fps=7604 q=-1.0 size= 3042560kB time=01:30:53.67 bitrate=4570.2kbits/s speed= 127x    frame=329138 fps=7561 q=-1.0 size= 3081216kB time=01:31:25.60 bitrate=4601.4kbits/s speed= 126x    frame=330875 fps=7514 q=-1.0 size= 3115776kB time=01:31:54.55 bitrate=4628.6kbits/s speed= 125x    frame=333028 fps=7478 q=-1.0 size= 3159552kB time=01:32:30.43 bitrate=4663.2kbits/s speed= 125x    frame=337903 fps=7503 q=-1.0 size= 3203328kB time=01:33:51.70 bitrate=4659.6kbits/s speed= 125x    frame=340253 fps=7473 q=-1.0 size= 3241216kB time=01:34:30.85 bitrate=4682.2kbits/s speed= 125x    frame=342211 fps=7434 q=-1.0 size= 3279360kB time=01:35:03.48 bitrate=4710.2kbits/s speed= 124x    frame=344138 fps=7395 q=-1.0 size= 3316992kB time=01:35:35.60 bitrate=4737.6kbits/s speed= 123x    frame=345828 fps=7353 q=-1.0 size= 3351040kB time=01:36:03.77 bitrate=4762.8kbits/s speed= 123x    frame=347678 fps=7314 q=-1.0 size= 3388416kB time=01:36:34.60 bitrate=4790.3kbits/s speed= 122x    frame=349628 fps=7279 q=-1.0 size= 3427328kB time=01:37:07.11 bitrate=4818.3kbits/s speed= 121x    frame=351304 fps=7238 q=-1.0 size= 3460096kB time=01:37:35.03 bitrate=4841.1kbits/s speed= 121x    frame=353812 fps=7215 q=-1.0 size= 3505408kB time=01:38:16.83 bitrate=4869.8kbits/s speed= 120x    frame=355859 fps=7184 q=-1.0 size= 3545600kB time=01:38:50.95 bitrate=4897.3kbits/s speed= 120x    frame=357934 fps=7154 q=-1.0 size= 3586560kB time=01:39:25.54 bitrate=4925.1kbits/s speed= 119x    frame=359830 fps=7120 q=-1.0 size= 3624704kB time=01:39:57.13 bitrate=4951.3kbits/s speed= 119x    frame=361585 fps=7085 q=-1.0 size= 3659008kB time=01:40:26.39 bitrate=4973.9kbits/s speed= 118x    frame=363587 fps=7055 q=-1.0 size= 3697920kB time=01:40:59.75 bitrate=4999.1kbits/s speed= 118x    frame=365708 fps=7028 q=-1.0 size= 3733760kB time=01:41:35.10 bitrate=5018.3kbits/s speed= 117x    frame=367830 fps=7001 q=-1.0 size= 3767808kB time=01:42:10.47 bitrate=5034.8kbits/s speed= 117x    frame=370869 fps=6993 q=-1.0 size= 3804160kB time=01:43:01.12 bitrate=5041.8kbits/s speed= 117x    frame=373654 fps=6979 q=-1.0 size= 3841024kB time=01:43:47.54 bitrate=5052.7kbits/s speed= 116x    frame=375560 fps=6950 q=-1.0 size= 3874816kB time=01:44:19.30 bitrate=5071.2kbits/s speed= 116x    frame=377474 fps=6921 q=-1.0 size= 3913216kB time=01:44:51.20 bitrate=5095.5kbits/s speed= 115x    frame=379410 fps=6893 q=-1.0 size= 3952128kB time=01:45:23.47 bitrate=5119.9kbits/s speed= 115x    frame=381137 fps=6862 q=-1.0 size= 3986176kB time=01:45:52.25 bitrate=5140.7kbits/s speed= 114x    frame=383057 fps=6835 q=-1.0 size= 4024832kB time=01:46:24.25 bitrate=5164.5kbits/s speed= 114x    frame=385005 fps=6809 q=-1.0 size= 4062720kB time=01:46:56.72 bitrate=5186.7kbits/s speed= 113x    frame=386698 fps=6779 q=-1.0 size= 4096000kB time=01:47:24.95 bitrate=5206.3kbits/s speed= 113x    frame=388604 fps=6754 q=-1.0 size= 4133632kB time=01:47:56.71 bitrate=5228.4kbits/s speed= 113x    frame=390523 fps=6728 q=-1.0 size= 4171776kB time=01:48:28.68 bitrate=5250.7kbits/s speed= 112x    frame=392446 fps=6704 q=-1.0 size= 4210176kB time=01:49:00.73 bitrate=5273.1kbits/s speed= 112x    frame=394620 fps=6684 q=-1.0 size= 4253696kB time=01:49:36.97 bitrate=5298.2kbits/s speed= 111x    frame=396425 fps=6658 q=-1.0 size= 4290304kB time=01:50:07.05 bitrate=5319.5kbits/s speed= 111x    frame=398171 fps=6631 q=-1.0 size= 4324608kB time=01:50:36.16 bitrate=5338.5kbits/s speed= 111x    frame=400065 fps=6608 q=-1.0 size= 4362752kB time=01:51:07.72 bitrate=5360.1kbits/s speed= 110x    frame=402211 fps=6589 q=-1.0 size= 4401920kB time=01:51:43.48 bitrate=5379.4kbits/s speed= 110x    frame=404007 fps=6564 q=-1.0 size= 4435968kB time=01:52:13.42 bitrate=5396.9kbits/s speed= 109x    frame=406844 fps=6557 q=-1.0 size= 4469760kB time=01:53:00.71 bitrate=5400.1kbits/s speed= 109x    frame=409191 fps=6542 q=-1.0 size= 4513024kB time=01:53:39.82 bitrate=5421.1kbits/s speed= 109x    frame=411871 fps=6533 q=-1.0 size= 4549120kB time=01:54:24.49 bitrate=5428.9kbits/s speed= 109x    frame=413845 fps=6513 q=-1.0 size= 4587520kB time=01:54:57.38 bitrate=5448.6kbits/s speed= 109x    frame=415684 fps=6490 q=-1.0 size= 4624640kB time=01:55:28.04 bitrate=5468.4kbits/s speed= 108x    frame=417315 fps=6465 q=-1.0 size= 4657664kB time=01:55:55.22 bitrate=5485.9kbits/s speed= 108x    frame=419281 fps=6446 q=-1.0 size= 4696832kB time=01:56:27.98 bitrate=5506.1kbits/s speed= 107x    frame=421174 fps=6426 q=-1.0 size= 4734976kB time=01:56:59.54 bitrate=5525.8kbits/s speed= 107x    frame=423011 fps=6405 q=-1.0 size= 4772096kB time=01:57:30.15 bitrate=5545.0kbits/s speed= 107x    frame=424937 fps=6385 q=-1.0 size= 4811264kB time=01:58:02.26 bitrate=5565.2kbits/s speed= 106x    frame=426808 fps=6366 q=-1.0 size= 4848896kB time=01:58:33.45 bitrate=5584.1kbits/s speed= 106x    frame=428518 fps=6344 q=-1.0 size= 4883456kB time=01:59:01.95 bitrate=5601.4kbits/s speed= 106x    frame=430445 fps=6326 q=-1.0 size= 4921088kB time=01:59:34.05 bitrate=5619.4kbits/s speed= 105x    frame=432218 fps=6305 q=-1.0 size= 4956416kB time=02:00:03.60 bitrate=5636.5kbits/s speed= 105x    frame=433907 fps=6284 q=-1.0 size= 4990464kB time=02:00:31.76 bitrate=5653.1kbits/s speed= 105x    frame=435611 fps=6263 q=-1.0 size= 5024768kB time=02:01:00.16 bitrate=5669.7kbits/s speed= 104x    frame=437413 fps=6244 q=-1.0 size= 5059328kB time=02:01:30.18 bitrate=5685.2kbits/s speed= 104x    frame=439163 fps=6225 q=-1.0 size= 5091840kB time=02:01:59.36 bitrate=5698.9kbits/s speed= 104x    frame=442188 fps=6224 q=-1.0 size= 5129216kB time=02:02:49.77 bitrate=5701.5kbits/s speed= 104x    frame=444438 fps=6212 q=-1.0 size= 5164288kB time=02:03:27.27 bitrate=5711.4kbits/s speed= 104x    frame=446348 fps=6195 q=-1.0 size= 5196800kB time=02:03:59.10 bitrate=5722.8kbits/s speed= 103x    frame=448434 fps=6181 q=-1.0 size= 5234176kB time=02:04:33.87 bitrate=5737.1kbits/s speed= 103x    frame=450351 fps=6165 q=-1.0 size= 5269760kB time=02:05:05.83 bitrate=5751.5kbits/s speed= 103x    frame=452571 fps=6153 q=-1.0 size= 5307136kB time=02:05:42.82 bitrate=5763.9kbits/s speed= 103x    frame=454616 fps=6139 q=-1.0 size= 5344512kB time=02:06:16.91 bitrate=5778.4kbits/s speed= 102x    frame=456410 fps=6122 q=-1.0 size= 5380096kB time=02:06:46.80 bitrate=5794.0kbits/s speed= 102x    frame=458225 fps=6105 q=-1.0 size= 5416960kB time=02:07:17.05 bitrate=5810.6kbits/s speed= 102x    frame=460164 fps=6091 q=-1.0 size= 5455872kB time=02:07:49.37 bitrate=5827.7kbits/s speed= 102x    frame=461941 fps=6074 q=-1.0 size= 5491712kB time=02:08:18.98 bitrate=5843.4kbits/s speed= 101x    frame=463785 fps=6058 q=-1.0 size= 5529088kB time=02:08:49.72 bitrate=5859.8kbits/s speed= 101x    frame=465691 fps=6044 q=-1.0 size= 5567488kB time=02:09:21.49 bitrate=5876.3kbits/s speed= 101x    frame=467495 fps=6028 q=-1.0 size= 5603840kB time=02:09:51.55 bitrate=5891.8kbits/s speed= 100x    frame=469546 fps=6016 q=-1.0 size= 5644544kB time=02:10:25.75 bitrate=5908.7kbits/s speed= 100x    frame=471862 fps=6007 q=-1.0 size= 5682432kB time=02:11:04.34 bitrate=5919.2kbits/s speed= 100x    frame=474537 fps=6003 q=-1.0 size= 5722112kB time=02:11:48.92 bitrate=5926.9kbits/s speed= 100x    frame=477217 fps=5999 q=-1.0 size= 5758720kB time=02:12:33.58 bitrate=5931.3kbits/s speed= 100x    frame=479053 fps=5984 q=-1.0 size= 5795840kB time=02:13:04.18 bitrate=5946.7kbits/s speed=99.7x    frame=481484 fps=5977 q=-1.0 size= 5831168kB time=02:13:44.70 bitrate=5952.7kbits/s speed=99.6x    frame=483607 fps=5966 q=-1.0 size= 5868800kB time=02:14:20.09 bitrate=5964.8kbits/s speed=99.4x    frame=485463 fps=5953 q=-1.0 size= 5906432kB time=02:14:51.02 bitrate=5980.1kbits/s speed=99.2x    frame=487425 fps=5940 q=-1.0 size= 5941248kB time=02:15:23.72 bitrate=5991.2kbits/s speed=  99x    frame=489334 fps=5927 q=-1.0 size= 5978112kB time=02:15:55.53 bitrate=6004.8kbits/s speed=98.8x    frame=491228 fps=5914 q=-1.0 size= 6015488kB time=02:16:27.11 bitrate=6019.1kbits/s speed=98.6x    frame=492911 fps=5899 q=-1.0 size= 6049536kB time=02:16:55.16 bitrate=6032.5kbits/s speed=98.3x    frame=494783 fps=5886 q=-1.0 size= 6086656kB time=02:17:26.35 bitrate=6046.5kbits/s speed=98.1x    frame=496679 fps=5874 q=-1.0 size= 6124800kB time=02:17:57.95 bitrate=6061.2kbits/s speed=97.9x    frame=498430 fps=5860 q=-1.0 size= 6159104kB time=02:18:27.13 bitrate=6073.7kbits/s speed=97.7x    frame=500250 fps=5847 q=-1.0 size= 6195968kB time=02:18:57.47 bitrate=6087.9kbits/s speed=97.4x    frame=502314 fps=5837 q=-1.0 size= 6234624kB time=02:19:31.87 bitrate=6100.7kbits/s speed=97.3x    frame=506813 fps=5855 q=-1.0 size= 6268672kB time=02:20:46.85 bitrate=6079.5kbits/s speed=97.6x    frame=509128 fps=5848 q=-1.0 size= 6305536kB time=02:21:25.43 bitrate=6087.5kbits/s speed=97.5x    frame=511279 fps=5839 q=-1.0 size= 6344704kB time=02:22:01.28 bitrate=6099.5kbits/s speed=97.3x    frame=513366 fps=5830 q=-1.0 size= 6380544kB time=02:22:36.07 bitrate=6109.0kbits/s speed=97.2x    frame=515727 fps=5823 q=-1.0 size= 6418432kB time=02:23:15.43 bitrate=6117.2kbits/s speed=97.1x    frame=517645 fps=5812 q=-1.0 size= 6456576kB time=02:23:47.38 bitrate=6130.7kbits/s speed=96.9x    frame=519443 fps=5800 q=-1.0 size= 6492672kB time=02:24:17.36 bitrate=6143.7kbits/s speed=96.7x    frame=521389 fps=5789 q=-1.0 size= 6531840kB time=02:24:49.79 bitrate=6157.7kbits/s speed=96.5x    frame=523318 fps=5779 q=-1.0 size= 6569984kB time=02:25:21.94 bitrate=6170.8kbits/s speed=96.3x    frame=525082 fps=5766 q=-1.0 size= 6605312kB time=02:25:51.33 bitrate=6183.1kbits/s speed=96.1x    frame=526906 fps=5755 q=-1.0 size= 6641152kB time=02:26:21.73 bitrate=6195.2kbits/s speed=95.9x    frame=529165 fps=5748 q=-1.0 size= 6685440kB time=02:26:59.39 bitrate=6209.9kbits/s speed=95.8x    frame=531149 fps=5738 q=-1.0 size= 6725376kB time=02:27:32.45 bitrate=6223.6kbits/s speed=95.6x    frame=533019 fps=5727 q=-1.0 size= 6763008kB time=02:28:03.62 bitrate=6236.5kbits/s speed=95.5x    frame=534817 fps=5716 q=-1.0 size= 6799104kB time=02:28:33.58 bitrate=6248.7kbits/s speed=95.3x    frame=536650 fps=5705 q=-1.0 size= 6835200kB time=02:29:04.15 bitrate=6260.4kbits/s speed=95.1x    frame=538715 fps=5697 q=-1.0 size= 6876928kB time=02:29:38.55 bitrate=6274.5kbits/s speed=94.9x    frame=541967 fps=5701 q=-1.0 size= 6914304kB time=02:30:32.76 bitrate=6270.7kbits/s speed=  95x    frame=545086 fps=5704 q=-1.0 size= 6952192kB time=02:31:24.73 bitrate=6269.0kbits/s speed=95.1x    frame=547718 fps=5702 q=-1.0 size= 6990848kB time=02:32:08.61 bitrate=6273.6kbits/s speed=  95x    frame=549795 fps=5694 q=-1.0 size= 7027200kB time=02:32:43.22 bitrate=6282.4kbits/s speed=94.9x    frame=551582 fps=5683 q=-1.0 size= 7062528kB time=02:33:13.00 bitrate=6293.5kbits/s speed=94.7x    frame=553623 fps=5674 q=-1.0 size= 7102464kB time=02:33:47.03 bitrate=6305.8kbits/s speed=94.6x    frame=555556 fps=5665 q=-1.0 size= 7140096kB time=02:34:19.24 bitrate=6317.1kbits/s speed=94.4x    frame=557559 fps=5657 q=-1.0 size= 7175680kB time=02:34:52.63 bitrate=6325.8kbits/s speed=94.3x    frame=559545 fps=5648 q=-1.0 size= 7214592kB time=02:35:25.72 bitrate=6337.5kbits/s speed=94.1x    frame=561402 fps=5638 q=-1.0 size= 7251968kB time=02:35:56.67 bitrate=6349.3kbits/s speed=  94x    frame=563502 fps=5631 q=-1.0 size= 7292416kB time=02:36:31.68 bitrate=6360.9kbits/s speed=93.9x    frame=565422 fps=5622 q=-1.0 size= 7331328kB time=02:37:03.67 bitrate=6373.1kbits/s speed=93.7x    frame=567373 fps=5614 q=-1.0 size= 7370496kB time=02:37:36.18 bitrate=6385.1kbits/s speed=93.6x    frame=569306 fps=5605 q=-1.0 size= 7408896kB time=02:38:08.40 bitrate=6396.6kbits/s speed=93.4x    frame=572247 fps=5607 q=-1.0 size= 7447552kB time=02:38:57.43 bitrate=6396.9kbits/s speed=93.4x    frame=574510 fps=5601 q=-1.0 size= 7482624kB time=02:39:35.13 bitrate=6401.8kbits/s speed=93.4x    frame=577016 fps=5598 q=-1.0 size= 7521792kB time=02:40:16.91 bitrate=6407.3kbits/s speed=93.3x    frame=578821 fps=5589 q=-1.0 size= 7557632kB time=02:40:46.99 bitrate=6417.8kbits/s speed=93.1x    frame=580775 fps=5581 q=-1.0 size= 7593728kB time=02:41:19.55 bitrate=6426.7kbits/s speed=  93x    frame=582680 fps=5572 q=-1.0 size= 7631872kB time=02:41:51.31 bitrate=6437.9kbits/s speed=92.9x    frame=584498 fps=5563 q=-1.0 size= 7668480kB time=02:42:21.60 bitrate=6448.6kbits/s speed=92.7x    frame=586409 fps=5555 q=-1.0 size= 7707136kB time=02:42:53.45 bitrate=6460.0kbits/s speed=92.6x    frame=588435 fps=5548 q=-1.0 size= 7744768kB time=02:43:27.22 bitrate=6469.2kbits/s speed=92.5x    frame=590281 fps=5539 q=-1.0 size= 7780608kB time=02:43:57.98 bitrate=6478.8kbits/s speed=92.3x    frame=592243 fps=5531 q=-1.0 size= 7818240kB time=02:44:30.69 bitrate=6488.6kbits/s speed=92.2x    frame=594185 fps=5524 q=-1.0 size= 7857152kB time=02:45:03.06 bitrate=6499.6kbits/s speed=92.1x    frame=596094 fps=5516 q=-1.0 size= 7895552kB time=02:45:34.87 bitrate=6510.4kbits/s speed=91.9x    frame=598144 fps=5509 q=-1.0 size= 7935232kB time=02:46:09.03 bitrate=6520.7kbits/s speed=91.8x    frame=600425 fps=5505 q=-1.0 size= 7974144kB time=02:46:47.06 bitrate=6527.8kbits/s speed=91.7x    frame=602561 fps=5499 q=-1.0 size= 8010240kB time=02:47:22.65 bitrate=6534.1kbits/s speed=91.7x    frame=605825 fps=5504 q=-1.0 size= 8048384kB time=02:48:17.05 bitrate=6529.9kbits/s speed=91.7x    frame=608867 fps=5506 q=-1.0 size= 8086784kB time=02:49:07.75 bitrate=6528.2kbits/s speed=91.8x    frame=610814 fps=5499 q=-1.0 size= 8122112kB time=02:49:40.20 bitrate=6535.9kbits/s speed=91.7x    frame=612538 fps=5490 q=-1.0 size= 8156928kB time=02:50:08.93 bitrate=6545.4kbits/s speed=91.5x    frame=614353 fps=5482 q=-1.0 size= 8193024kB time=02:50:39.18 bitrate=6554.9kbits/s speed=91.4x    frame=616031 fps=5472 q=-1.0 size= 8226816kB time=02:51:07.15 bitrate=6564.0kbits/s speed=91.2x    frame=618095 fps=5466 q=-1.0 size= 8266752kB time=02:51:41.56 bitrate=6573.9kbits/s speed=91.1x    frame=620059 fps=5459 q=-1.0 size= 8305152kB time=02:52:14.28 bitrate=6583.5kbits/s speed=  91x    frame=621817 fps=5451 q=-1.0 size= 8340224kB time=02:52:43.58 bitrate=6592.6kbits/s speed=90.8x    frame=623758 fps=5444 q=-1.0 size= 8379392kB time=02:53:15.94 bitrate=6603.0kbits/s speed=90.7x    frame=626961 fps=5448 q=-1.0 size= 8424192kB time=02:54:09.32 bitrate=6604.3kbits/s speed=90.8x    frame=629014 fps=5442 q=-1.0 size= 8464384kB time=02:54:43.53 bitrate=6614.2kbits/s speed=90.7x    frame=632156 fps=5446 q=-1.0 size= 8508160kB time=02:55:35.90 bitrate=6615.4kbits/s speed=90.8x    frame=634975 fps=5447 q=-1.0 size= 8551936kB time=02:56:22.88 bitrate=6619.9kbits/s speed=90.8x    frame=637020 fps=5441 q=-1.0 size= 8589568kB time=02:56:56.98 bitrate=6627.7kbits/s speed=90.7x    frame=639295 fps=5437 q=-1.0 size= 8634880kB time=02:57:34.88 bitrate=6638.9kbits/s speed=90.6x    frame=641262 fps=5431 q=-1.0 size= 8673280kB time=02:58:07.67 bitrate=6648.0kbits/s speed=90.5x    frame=643257 fps=5425 q=-1.0 size= 8711680kB time=02:58:40.92 bitrate=6656.7kbits/s speed=90.4x    frame=645161 fps=5418 q=-1.0 size= 8749568kB time=02:59:12.66 bitrate=6665.9kbits/s speed=90.3x    frame=646975 fps=5410 q=-1.0 size= 8786176kB time=02:59:42.89 bitrate=6675.1kbits/s speed=90.2x    frame=648625 fps=5402 q=-1.0 size= 8818944kB time=03:00:10.39 bitrate=6682.9kbits/s speed=  90x    frame=650451 fps=5394 q=-1.0 size= 8855040kB time=03:00:40.83 bitrate=6691.4kbits/s speed=89.9x    frame=652232 fps=5387 q=-1.0 size= 8891136kB time=03:01:10.50 bitrate=6700.4kbits/s speed=89.8x    frame=654274 fps=5381 q=-1.0 size= 8932352kB time=03:01:44.53 bitrate=6710.4kbits/s speed=89.7x    frame=656202 fps=5375 q=-1.0 size= 8970496kB time=03:02:16.68 bitrate=6719.2kbits/s speed=89.6x    frame=657908 fps=5367 q=-1.0 size= 9003776kB time=03:02:45.10 bitrate=6726.7kbits/s speed=89.5x    frame=659884 fps=5361 q=-1.0 size= 9042688kB time=03:03:18.03 bitrate=6735.5kbits/s speed=89.4x    frame=662865 fps=5364 q=-1.0 size= 9080064kB time=03:04:07.72 bitrate=6733.0kbits/s speed=89.4x    frame=665245 fps=5361 q=-1.0 size= 9115392kB time=03:04:47.38 bitrate=6735.0kbits/s speed=89.4x    frame=667414 fps=5357 q=-1.0 size= 9152512kB time=03:05:23.54 bitrate=6740.4kbits/s speed=89.3x    frame=669347 fps=5351 q=-1.0 size= 9190656kB time=03:05:55.75 bitrate=6749.0kbits/s speed=89.2x    frame=671075 fps=5344 q=-1.0 size= 9222912kB time=03:06:24.55 bitrate=6755.2kbits/s speed=89.1x    frame=673129 fps=5339 q=-1.0 size= 9261056kB time=03:06:58.78 bitrate=6762.5kbits/s speed=  89x    frame=675311 fps=5335 q=-1.0 size= 9304832kB time=03:07:35.16 bitrate=6772.5kbits/s speed=88.9x    frame=677057 fps=5328 q=-1.0 size= 9340160kB time=03:08:04.25 bitrate=6780.7kbits/s speed=88.8x    frame=679013 fps=5322 q=-1.0 size= 9378560kB time=03:08:36.86 bitrate=6788.9kbits/s speed=88.7x    frame=681221 fps=5318 q=-1.0 size= 9417728kB time=03:09:13.65 bitrate=6795.2kbits/s speed=88.6x    frame=683198 fps=5313 q=-1.0 size= 9455616kB time=03:09:46.60 bitrate=6802.8kbits/s speed=88.6x    frame=685184 fps=5308 q=-1.0 size= 9494528kB time=03:10:19.71 bitrate=6811.0kbits/s speed=88.5x    frame=687046 fps=5302 q=-1.0 size= 9532416kB time=03:10:50.75 bitrate=6819.6kbits/s speed=88.4x    frame=688943 fps=5296 q=-1.0 size= 9568768kB time=03:11:22.36 bitrate=6826.8kbits/s speed=88.3x    frame=690980 fps=5291 q=-1.0 size= 9607936kB time=03:11:56.31 bitrate=6834.5kbits/s speed=88.2x    frame=693074 fps=5287 q=-1.0 size= 9644544kB time=03:12:31.21 bitrate=6839.8kbits/s speed=88.1x    frame=695372 fps=5284 q=-1.0 size= 9680896kB time=03:13:09.50 bitrate=6842.9kbits/s speed=88.1x    frame=698939 fps=5291 q=-1.0 size= 9718016kB time=03:14:08.96 bitrate=6834.1kbits/s speed=88.2x    frame=701391 fps=5290 q=-1.0 size= 9754368kB time=03:14:49.83 bitrate=6835.7kbits/s speed=88.2x    frame=703541 fps=5286 q=-1.0 size= 9793280kB time=03:15:25.65 bitrate=6842.0kbits/s speed=88.1x    frame=705881 fps=5284 q=-1.0 size= 9831680kB time=03:16:04.65 bitrate=6846.0kbits/s speed=88.1x    frame=708319 fps=5282 q=-1.0 size= 9871104kB time=03:16:45.28 bitrate=6849.8kbits/s speed=  88x    frame=710339 fps=5278 q=-1.0 size= 9912064kB time=03:17:18.95 bitrate=6858.7kbits/s speed=  88x    frame=712603 fps=5275 q=-1.0 size= 9957888kB time=03:17:56.68 bitrate=6868.5kbits/s speed=87.9x    frame=714428 fps=5269 q=-1.0 size= 9994240kB time=03:18:27.11 bitrate=6876.0kbits/s speed=87.8x    frame=716585 fps=5266 q=-1.0 size=10037760kB time=03:19:03.05 bitrate=6885.1kbits/s speed=87.8x    frame=718468 fps=5260 q=-1.0 size=10075392kB time=03:19:34.43 bitrate=6892.8kbits/s speed=87.7x    frame=720314 fps=5254 q=-1.0 size=10112768kB time=03:20:05.20 bitrate=6900.7kbits/s speed=87.6x    frame=722212 fps=5249 q=-1.0 size=10150912kB time=03:20:36.84 bitrate=6908.5kbits/s speed=87.5x    frame=724159 fps=5244 q=-1.0 size=10190080kB time=03:21:09.28 bitrate=6916.5kbits/s speed=87.4x    frame=725930 fps=5238 q=-1.0 size=10225664kB time=03:21:38.81 bitrate=6923.7kbits/s speed=87.3x    frame=727817 fps=5233 q=-1.0 size=10264320kB time=03:22:10.26 bitrate=6931.9kbits/s speed=87.2x    frame=729837 fps=5228 q=-1.0 size=10304000kB time=03:22:43.92 bitrate=6939.4kbits/s speed=87.1x    frame=733134 fps=5233 q=-1.0 size=10339072kB time=03:23:38.87 bitrate=6931.7kbits/s speed=87.2x    frame=735489 fps=5245 q=-1.0 Lsize=10349038kB time=03:24:18.09 bitrate=6916.2kbits/s speed=87.4x    
video:10033600kB audio:291527kB subtitle:0kB other streams:0kB global headers:0kB muxing overhead: 0.231578%
